<svg aria-hidden="true" style="position: absolute; width: 0; height: 0; overflow: hidden;" version="1.1" xmlns="http://www.w3.org/2000/svg" xmlns:xlink="http://www.w3.org/1999/xlink">
<defs>
<symbol id="icon-burger" viewBox="0 0 32 32">
<path fill="none" stroke="#fafafa" style="stroke: var(--color1, #fafafa)" stroke-linejoin="round" stroke-linecap="round" stroke-miterlimit="4" stroke-width="2.2857" d="M4 11.333h24M4 20.667h24"></path>
</symbol>
<symbol id="icon-cross" viewBox="0 0 32 32">
<path fill="none" stroke="#fafafa" style="stroke: var(--color1, #fafafa)" stroke-linejoin="round" stroke-linecap="round" stroke-miterlimit="4" stroke-width="2.6667" d="M24 8l-16 16"></path>
<path fill="none" stroke="#fafafa" style="stroke: var(--color1, #fafafa)" stroke-linejoin="round" stroke-linecap="round" stroke-miterlimit="4" stroke-width="2.6667" d="M8 8l16 16"></path>
</symbol>
<symbol id="icon-jefferson" viewBox="0 0 141 32">
<path fill="#fafafa" style="fill: var(--color1, #fafafa)" d="M133.416 15.158l0.234-4.936-4.313 2.685-1.337-2.219 4.58-2.251-4.58-2.251 1.337-2.251 4.313 2.685-0.234-4.936h2.641l-0.234 4.936 4.313-2.685 1.337 2.251-4.58 2.251 4.58 2.251-1.337 2.219-4.313-2.685 0.234 4.936h-2.641z"></path>
<path fill="#fafafa" style="fill: var(--color1, #fafafa)" d="M112.987 14.412v10.851h-3.513v-18.297h3.415v3.011h0.244c0.412-0.993 1.057-1.778 1.936-2.357 0.878-0.589 2.006-0.884 3.383-0.884 1.236 0 2.315 0.262 3.236 0.786 0.933 0.513 1.654 1.282 2.163 2.308 0.52 1.026 0.781 2.297 0.781 3.813v11.62h-3.513v-11.194c0-1.32-0.347-2.357-1.041-3.11-0.694-0.764-1.637-1.146-2.83-1.146-0.813 0-1.545 0.185-2.196 0.556-0.64 0.36-1.144 0.878-1.512 1.555s-0.553 1.506-0.553 2.488z"></path>
<path fill="#fafafa" style="fill: var(--color1, #fafafa)" d="M99.36 25.263c-1.69 0-3.17-0.385-4.441-1.155-1.26-0.77-2.239-1.85-2.939-3.24-0.689-1.39-1.033-3.005-1.033-4.844 0-1.861 0.344-3.486 1.033-4.876 0.7-1.401 1.679-2.486 2.939-3.256 1.27-0.77 2.75-1.155 4.441-1.155 1.701 0 3.181 0.385 4.441 1.155s2.239 1.855 2.939 3.256c0.7 1.39 1.050 3.016 1.050 4.876 0 1.839-0.35 3.454-1.050 4.844s-1.679 2.47-2.939 3.24c-1.259 0.77-2.74 1.155-4.441 1.155zM99.36 22.328c1.109 0 2.024-0.289 2.745-0.866s1.254-1.342 1.599-2.294c0.355-0.963 0.533-2.010 0.533-3.144 0-1.155-0.178-2.214-0.533-3.176-0.344-0.962-0.877-1.732-1.599-2.31s-1.636-0.866-2.745-0.866c-1.098 0-2.008 0.289-2.729 0.866-0.711 0.577-1.243 1.347-1.599 2.31s-0.533 2.021-0.533 3.176c0 1.134 0.178 2.181 0.533 3.144 0.355 0.952 0.888 1.716 1.599 2.294 0.721 0.577 1.631 0.866 2.729 0.866z"></path>
<path fill="#fafafa" style="fill: var(--color1, #fafafa)" d="M88.896 11.356l-3.289 0.545c-0.212-0.599-0.606-1.15-1.185-1.652-0.568-0.503-1.419-0.754-2.554-0.754-1.024 0-1.881 0.225-2.571 0.674-0.679 0.438-1.018 1-1.018 1.684 0 0.599 0.228 1.085 0.684 1.46 0.467 0.374 1.207 0.674 2.22 0.898l2.988 0.642c1.703 0.374 2.977 0.962 3.823 1.764s1.269 1.829 1.269 3.080c0 1.080-0.323 2.042-0.968 2.887-0.646 0.834-1.541 1.492-2.688 1.973-1.146 0.47-2.471 0.706-3.973 0.706-2.092 0-3.795-0.433-5.108-1.299s-2.12-2.085-2.421-3.657l3.489-0.513c0.222 0.877 0.673 1.54 1.352 1.989 0.69 0.449 1.58 0.674 2.671 0.674 1.18 0 2.126-0.241 2.838-0.722 0.723-0.481 1.085-1.064 1.085-1.748 0-1.133-0.879-1.898-2.637-2.294l-3.155-0.674c-1.747-0.385-3.038-0.989-3.873-1.813-0.824-0.834-1.235-1.882-1.235-3.144 0-1.059 0.306-1.989 0.918-2.791 0.623-0.802 1.475-1.422 2.554-1.861 1.091-0.449 2.331-0.674 3.723-0.674 2.025 0 3.611 0.422 4.758 1.267 1.157 0.845 1.925 1.962 2.304 3.352z"></path>
<path fill="#fafafa" style="fill: var(--color1, #fafafa)" d="M64 25.263v-18.265h3.538v2.924h0.203c0.35-0.98 0.959-1.754 1.828-2.32 0.88-0.577 1.873-0.866 2.979-0.866 0.226 0 0.491 0.011 0.795 0.033 0.316 0.011 0.57 0.027 0.762 0.049v3.398c-0.147-0.044-0.412-0.087-0.796-0.131-0.372-0.044-0.75-0.065-1.134-0.065-0.869 0-1.648 0.18-2.336 0.539-0.677 0.349-1.213 0.833-1.608 1.454-0.384 0.61-0.576 1.318-0.576 2.124v11.126h-3.656z"></path>
<path fill="#fafafa" style="fill: var(--color1, #fafafa)" d="M54.344 25.263c-1.82 0-3.395-0.38-4.726-1.139s-2.358-1.829-3.079-3.208c-0.71-1.39-1.065-3.010-1.065-4.86 0-1.839 0.349-3.459 1.048-4.86 0.71-1.401 1.703-2.492 2.979-3.272 1.287-0.791 2.796-1.187 4.527-1.187 1.054 0 2.075 0.166 3.062 0.497s1.875 0.855 2.663 1.572c0.788 0.716 1.409 1.647 1.864 2.791 0.466 1.144 0.699 2.524 0.699 4.138v1.251h-14.795v-2.615h12.931l-1.681 0.866c0-1.101-0.178-2.075-0.533-2.919s-0.888-1.502-1.598-1.973c-0.699-0.481-1.57-0.722-2.613-0.722s-1.936 0.241-2.68 0.722c-0.732 0.481-1.292 1.117-1.681 1.909s-0.582 1.657-0.582 2.598v1.78c0 1.23 0.222 2.272 0.666 3.128s1.060 1.508 1.847 1.957c0.799 0.449 1.725 0.674 2.779 0.674 0.688 0 1.309-0.096 1.864-0.289 0.566-0.192 1.054-0.481 1.464-0.866s0.721-0.861 0.932-1.428l3.428 0.626c-0.277 0.963-0.766 1.807-1.465 2.534s-1.581 1.294-2.646 1.7c-1.054 0.396-2.258 0.594-3.611 0.594z"></path>
<path fill="#fafafa" style="fill: var(--color1, #fafafa)" d="M46.213 7.158v2.834h-10.844v-2.834h10.844zM38.324 25.263v-20.211c0-1.123 0.264-2.057 0.791-2.802 0.538-0.756 1.237-1.317 2.097-1.684 0.871-0.378 1.804-0.567 2.801-0.567 0.767 0 1.421 0.059 1.959 0.178s0.934 0.221 1.186 0.308l-0.894 2.85c-0.172-0.054-0.395-0.113-0.67-0.178-0.263-0.065-0.596-0.097-0.997-0.097-0.905 0-1.558 0.216-1.959 0.648-0.401 0.421-0.601 1.036-0.601 1.846v19.709h-3.712z"></path>
<path fill="#fafafa" style="fill: var(--color1, #fafafa)" d="M36.107 7.158v2.834h-10.844v-2.834h10.844zM28.219 25.263v-20.211c0-1.123 0.264-2.057 0.791-2.802 0.538-0.756 1.237-1.317 2.097-1.684 0.871-0.378 1.804-0.567 2.801-0.567 0.767 0 1.421 0.059 1.959 0.178s0.934 0.221 1.186 0.308l-0.894 2.85c-0.172-0.054-0.395-0.113-0.67-0.178-0.263-0.065-0.596-0.097-0.997-0.097-0.905 0-1.558 0.216-1.959 0.648-0.401 0.421-0.601 1.036-0.601 1.846v19.709h-3.712z"></path>
<path fill="#fafafa" style="fill: var(--color1, #fafafa)" d="M17.291 25.263c-1.82 0-3.395-0.38-4.726-1.139s-2.358-1.829-3.079-3.208c-0.71-1.39-1.065-3.010-1.065-4.86 0-1.839 0.35-3.459 1.048-4.86 0.71-1.401 1.703-2.492 2.979-3.272 1.287-0.791 2.796-1.187 4.527-1.187 1.054 0 2.075 0.166 3.062 0.497s1.875 0.855 2.663 1.572c0.788 0.716 1.409 1.647 1.864 2.791 0.466 1.144 0.699 2.524 0.699 4.138v1.251h-14.795v-2.615h12.931l-1.681 0.866c0-1.101-0.178-2.075-0.533-2.919s-0.888-1.502-1.598-1.973c-0.699-0.481-1.57-0.722-2.613-0.722s-1.936 0.241-2.68 0.722c-0.732 0.481-1.293 1.117-1.681 1.909s-0.582 1.657-0.582 2.598v1.78c0 1.23 0.222 2.272 0.666 3.128s1.060 1.508 1.847 1.957c0.799 0.449 1.725 0.674 2.779 0.674 0.688 0 1.309-0.096 1.864-0.289 0.566-0.192 1.054-0.481 1.464-0.866s0.721-0.861 0.932-1.428l3.428 0.626c-0.277 0.963-0.766 1.807-1.465 2.534s-1.581 1.294-2.646 1.7c-1.054 0.396-2.258 0.594-3.611 0.594z"></path>
<path fill="#fafafa" style="fill: var(--color1, #fafafa)" d="M2.878 7.012h3.416v19.376c0.011 1.215-0.2 2.24-0.633 3.075s-1.065 1.464-1.898 1.887c-0.833 0.434-1.856 0.651-3.068 0.651h-0.696v-3.042h0.553c0.822 0 1.413-0.222 1.771-0.667s0.543-1.085 0.554-1.92v-19.36zM4.57 4.214c-0.601 0-1.112-0.206-1.534-0.618s-0.633-0.906-0.633-1.48c0-0.586 0.211-1.085 0.633-1.497s0.933-0.618 1.534-0.618c0.59 0 1.096 0.206 1.518 0.618 0.432 0.412 0.648 0.911 0.648 1.497 0 0.575-0.216 1.068-0.648 1.48-0.422 0.412-0.928 0.618-1.518 0.618z"></path>
</symbol>

  <symbol id="icon-arrow-narrow-left" viewBox="0 0 33 32">
<path stroke-linejoin="round" stroke-linecap="round" stroke-miterlimit="4" stroke-width="2.6667" d="M27.333 16h-21.333"></path>
<path stroke-linejoin="round" stroke-linecap="round" stroke-miterlimit="4" stroke-width="2.6667" d="M14 24l-8-8 8-8"></path>
</symbol>

<symbol id="icon-arrow-narrow-right" viewBox="0 0 33 32">
<path fill="none" stroke="#fafafa" style="stroke: var(--color1, #fafafa)" stroke-linejoin="round" stroke-linecap="round" stroke-miterlimit="4" stroke-width="2.6667" d="M6 16h21.333"></path>
<path fill="none" stroke="#fafafa" style="stroke: var(--color1, #fafafa)" stroke-linejoin="round" stroke-linecap="round" stroke-miterlimit="4" stroke-width="2.6667" d="M19.333 8l8 8-8 8"></path>
</symbol>

<symbol id="icon-ellipse-2" viewBox="0 0 32 32">
<path fill="#ed3b44" opacity="0.6" style="fill: var(--color2, #ed3b44)" d="M24.069 16c0 4.456-3.613 8.069-8.069 8.069s-8.069-3.613-8.069-8.069c0-4.456 3.613-8.069 8.069-8.069s8.069 3.613 8.069 8.069z"></path>

</symbol>
<symbol id="icon-hourglass-04" viewBox="0 0 32 32">
<path fill="#ed3b44" style="fill: var(--color2, #ed3b44)" d="M6.667 0h18.667c3.682 0 6.667 2.985 6.667 6.667v18.667c0 3.682-2.985 6.667-6.667 6.667h-18.667c-3.682 0-6.667-2.985-6.667-6.667v-18.667c0-3.682 2.985-6.667 6.667-6.667z"></path>
<path fill="none" stroke="#fafafa" style="stroke: var(--color1, #fafafa)" stroke-linejoin="round" stroke-linecap="round" stroke-miterlimit="4" stroke-width="1.3333" d="M20.108 9.333h-8.217c-0.308 0-0.558 0.25-0.558 0.558 0 1.777 0.706 3.481 1.962 4.737l0.813 0.813c0.081 0.081 0.121 0.121 0.15 0.16 0.176 0.236 0.176 0.561 0 0.797-0.029 0.039-0.069 0.079-0.15 0.16l-0.813 0.813c-1.256 1.256-1.962 2.96-1.962 4.737 0 0.308 0.25 0.558 0.558 0.558h8.217c0.308 0 0.558-0.25 0.558-0.558 0-1.777-0.706-3.481-1.962-4.737l-0.813-0.813c-0.081-0.081-0.121-0.121-0.15-0.16-0.176-0.236-0.176-0.561 0-0.797 0.029-0.039 0.069-0.079 0.15-0.16l0.813-0.813c1.256-1.256 1.962-2.96 1.962-4.737 0-0.308-0.25-0.558-0.558-0.558z"></path>
</symbol>
<symbol id="icon-brush-03" viewBox="0 0 32 32">
<path fill="#ed3b44" style="fill: var(--color2, #ed3b44)" d="M6.667 0h18.667c3.682 0 6.667 2.985 6.667 6.667v18.667c0 3.682-2.985 6.667-6.667 6.667h-18.667c-3.682 0-6.667-2.985-6.667-6.667v-18.667c0-3.682 2.985-6.667 6.667-6.667z"></path>
<path fill="none" stroke="#fafafa" style="stroke: var(--color1, #fafafa)" stroke-linejoin="round" stroke-linecap="round" stroke-miterlimit="4" stroke-width="1.3333" d="M16.519 18l-2.519-2.519"></path>
<path fill="none" stroke="#fafafa" style="stroke: var(--color1, #fafafa)" stroke-linejoin="round" stroke-linecap="round" stroke-miterlimit="4" stroke-width="1.3333" d="M9.333 22.667c1.333 0 3.072 0.228 3.983-0.683s0.911-2.389 0-3.3c-0.911-0.911-2.389-0.911-3.3 0s0 2.65-0.683 3.983z"></path>
<path fill="none" stroke="#fafafa" style="stroke: var(--color1, #fafafa)" stroke-linejoin="round" stroke-linecap="round" stroke-miterlimit="4" stroke-width="1.3333" d="M13.333 18.667c-0.328-0.328-0.491-0.491-0.584-0.663-0.222-0.411-0.213-0.909 0.025-1.311 0.099-0.168 0.269-0.325 0.609-0.64l6.579-6.091c0.579-0.536 1.479-0.519 2.038 0.039s0.576 1.458 0.039 2.038l-6.091 6.579c-0.315 0.34-0.472 0.51-0.64 0.609-0.403 0.238-0.9 0.247-1.311 0.025-0.172-0.093-0.335-0.256-0.663-0.584z"></path>
</symbol>
<symbol id="icon-message-chat-circle-02" viewBox="0 0 32 32">
<path fill="#ed3b44" style="fill: var(--color2, #ed3b44)" d="M6.667 0h18.667c3.682 0 6.667 2.985 6.667 6.667v18.667c0 3.682-2.985 6.667-6.667 6.667h-18.667c-3.682 0-6.667-2.985-6.667-6.667v-18.667c0-3.682 2.985-6.667 6.667-6.667z"></path>
<path fill="none" stroke="#fafafa" style="stroke: var(--color1, #fafafa)" stroke-linejoin="round" stroke-linecap="round" stroke-miterlimit="4" stroke-width="1.3333" d="M12.063 15.486c-0.041-0.267-0.063-0.541-0.063-0.819 0-2.946 2.403-5.333 5.368-5.333s5.368 2.388 5.368 5.333c0 0.665-0.123 1.302-0.347 1.89-0.047 0.122-0.070 0.183-0.080 0.231s-0.015 0.080-0.016 0.129c-0.001 0.049 0.005 0.102 0.019 0.21l0.268 2.18c0.029 0.236 0.044 0.354 0.004 0.44-0.034 0.075-0.095 0.135-0.171 0.168-0.087 0.037-0.204 0.020-0.44-0.014l-2.123-0.311c-0.111-0.016-0.166-0.024-0.217-0.024s-0.084 0.004-0.133 0.014c-0.049 0.010-0.113 0.034-0.239 0.081-0.589 0.221-1.227 0.341-1.894 0.341-0.279 0-0.553-0.021-0.82-0.062M13.088 22.667c1.977 0 3.579-1.642 3.579-3.667s-1.602-3.667-3.579-3.667c-1.977 0-3.579 1.642-3.579 3.667 0 0.407 0.065 0.799 0.184 1.164 0.051 0.155 0.076 0.232 0.084 0.285 0.009 0.055 0.010 0.086 0.007 0.142-0.003 0.053-0.016 0.114-0.043 0.234l-0.408 1.841 1.997-0.273c0.109-0.015 0.163-0.022 0.211-0.022 0.050 0 0.077 0.003 0.126 0.013 0.047 0.009 0.116 0.034 0.255 0.083 0.366 0.129 0.758 0.199 1.166 0.199z"></path>
</symbol>
<symbol id="icon-user-01" viewBox="0 0 32 32">
<path fill="#ed3b44" style="fill: var(--color2, #ed3b44)" d="M6.667 0h18.667c3.682 0 6.667 2.985 6.667 6.667v18.667c0 3.682-2.985 6.667-6.667 6.667h-18.667c-3.682 0-6.667-2.985-6.667-6.667v-18.667c0-3.682 2.985-6.667 6.667-6.667z"></path>
<path fill="none" stroke="#fafafa" style="stroke: var(--color1, #fafafa)" stroke-linejoin="round" stroke-linecap="round" stroke-miterlimit="4" stroke-width="1.3333" d="M21.333 22c0-0.93 0-1.396-0.115-1.774-0.259-0.852-0.926-1.519-1.778-1.778-0.379-0.115-0.844-0.115-1.774-0.115h-3.333c-0.93 0-1.396 0-1.774 0.115-0.852 0.259-1.519 0.926-1.778 1.778-0.115 0.379-0.115 0.844-0.115 1.774"></path>
<path fill="none" stroke="#fafafa" style="stroke: var(--color1, #fafafa)" stroke-linejoin="round" stroke-linecap="round" stroke-miterlimit="4" stroke-width="1.3333" d="M16 16c1.657 0 3-1.343 3-3s-1.343-3-3-3c-1.657 0-3 1.343-3 3s1.343 3 3 3z"></path>
</symbol>
<symbol id="icon-arrow" viewBox="0 0 32 32">
<path fill="none" stroke="#fafafa" style="stroke: var(--color1, #fafafa)" stroke-linejoin="miter" stroke-linecap="butt" stroke-miterlimit="4" stroke-width="3.2" d="M24 12l-8 8-8-8"></path>
</symbol>
</defs>
</svg>
